<svg width="22" height="22" viewBox="0 0 22 22" fill="none" xmlns="http://www.w3.org/2000/svg">
<g clip-path="url(#clip0_18_72)">
<path d="M4.675 0H0V22H4.675V0Z" fill="black"/>
<path d="M16.2248 0H11.5498V22H16.2248V0Z" fill="black"/>
<path d="M10.4499 0H5.7749V10.45H10.4499V0Z" fill="black"/>
<path d="M10.4499 11.55H5.7749V22H10.4499V11.55Z" fill="black"/>
<path d="M19.6638 0H19.6616C18.3712 0 17.3252 1.04604 17.3252 2.3364V8.1136C17.3252 9.40396 18.3712 10.45 19.6616 10.45H19.6638C20.9542 10.45 22.0002 9.40396 22.0002 8.1136V2.3364C22.0002 1.04604 20.9542 0 19.6638 0Z" fill="black"/>
<path d="M19.6638 11.55H19.6616C18.3712 11.55 17.3252 12.596 17.3252 13.8864V19.6636C17.3252 20.954 18.3712 22 19.6616 22H19.6638C20.9542 22 22.0002 20.954 22.0002 19.6636V13.8864C22.0002 12.596 20.9542 11.55 19.6638 11.55Z" fill="black"/>
</g>
<defs>
<clipPath id="clip0_18_72">
<rect width="22" height="22" fill="white"/>
</clipPath>
</defs>
</svg>
